<?xml version="1.0" encoding="UTF-8" standalone="no"?>
<!-- Created with Inkscape (http://www.inkscape.org/) -->

<svg
   xmlns:dc="http://purl.org/dc/elements/1.1/"
   xmlns:cc="http://creativecommons.org/ns#"
   xmlns:rdf="http://www.w3.org/1999/02/22-rdf-syntax-ns#"
   xmlns:svg="http://www.w3.org/2000/svg"
   xmlns="http://www.w3.org/2000/svg"
   xmlns:xlink="http://www.w3.org/1999/xlink"
   xmlns:sodipodi="http://sodipodi.sourceforge.net/DTD/sodipodi-0.dtd"
   xmlns:inkscape="http://www.inkscape.org/namespaces/inkscape"
   width="130"
   height="30"
   viewBox="0 0 130 30.000001"
   id="svg2"
   version="1.1"
   inkscape:version="0.91 r13725"
   sodipodi:docname="breadcrumb.svg"
   inkscape:export-filename="D:\Projekte\GitHub\detailed-skyrim-calculator\skycalc\res\bread_start.png"
   inkscape:export-xdpi="90"
   inkscape:export-ydpi="90">
  <defs
     id="defs4">
    <linearGradient
       inkscape:collect="always"
       id="linearGradient4241">
      <stop
         style="stop-color:#d0b180;stop-opacity:1;"
         offset="0"
         id="stop4243" />
      <stop
         style="stop-color:#d0b180;stop-opacity:0;"
         offset="1"
         id="stop4245" />
    </linearGradient>
    <linearGradient
       inkscape:collect="always"
       id="linearGradient4173">
      <stop
         style="stop-color:#2f2924;stop-opacity:1;"
         offset="0"
         id="stop4175" />
      <stop
         style="stop-color:#2f2924;stop-opacity:0;"
         offset="1"
         id="stop4177" />
    </linearGradient>
    <clipPath
       clipPathUnits="userSpaceOnUse"
       id="clipPath4331">
      <circle
         r="14.624779"
         cy="1037.3739"
         cx="14.988266"
         id="circle4333"
         style="opacity:1;fill:#1a1816;fill-opacity:1;fill-rule:nonzero;stroke:none;stroke-width:0.5;stroke-linecap:square;stroke-linejoin:round;stroke-miterlimit:4;stroke-dasharray:none;stroke-opacity:1" />
    </clipPath>
    <radialGradient
       inkscape:collect="always"
       xlink:href="#linearGradient4173"
       id="radialGradient4179"
       cx="64.987534"
       cy="15.073124"
       fx="64.987534"
       fy="15.073124"
       r="25.003924"
       gradientTransform="matrix(1,0,0,1.0184887,0,-0.27868243)"
       gradientUnits="userSpaceOnUse" />
    <radialGradient
       inkscape:collect="always"
       xlink:href="#linearGradient4241"
       id="radialGradient4336"
       gradientUnits="userSpaceOnUse"
       gradientTransform="matrix(1,0,0,1.0184887,0,-0.27868243)"
       cx="64.987534"
       cy="15.073124"
       fx="64.987534"
       fy="15.073124"
       r="25.003923" />
    <linearGradient
       inkscape:collect="always"
       xlink:href="#linearGradient4241"
       id="linearGradient4346"
       x1="74.634689"
       y1="11.888744"
       x2="35.884686"
       y2="11.888744"
       gradientUnits="userSpaceOnUse" />
    <linearGradient
       inkscape:collect="always"
       xlink:href="#linearGradient4241"
       id="linearGradient4356"
       x1="55.207767"
       y1="16.46011"
       x2="94.604912"
       y2="16.46011"
       gradientUnits="userSpaceOnUse" />
    <linearGradient
       inkscape:collect="always"
       xlink:href="#linearGradient4173"
       id="linearGradient4175"
       x1="59.874992"
       y1="15.089286"
       x2="10.124989"
       y2="15.089286"
       gradientUnits="userSpaceOnUse" />
    <linearGradient
       inkscape:collect="always"
       xlink:href="#linearGradient4173"
       id="linearGradient4185"
       x1="70"
       y1="15.089286"
       x2="120.23215"
       y2="15.089286"
       gradientUnits="userSpaceOnUse" />
  </defs>
  <sodipodi:namedview
     id="base"
     pagecolor="#ffffff"
     bordercolor="#666666"
     borderopacity="1.0"
     inkscape:pageopacity="0.0"
     inkscape:pageshadow="2"
     inkscape:zoom="8.0000004"
     inkscape:cx="81.32353"
     inkscape:cy="21.508339"
     inkscape:document-units="px"
     inkscape:current-layer="g4157"
     showgrid="false"
     units="px"
     inkscape:window-width="1600"
     inkscape:window-height="847"
     inkscape:window-x="-8"
     inkscape:window-y="-8"
     inkscape:window-maximized="1" />
  <metadata
     id="metadata7">
    <rdf:RDF>
      <cc:Work
         rdf:about="">
        <dc:format>image/svg+xml</dc:format>
        <dc:type
           rdf:resource="http://purl.org/dc/dcmitype/StillImage" />
        <dc:title />
      </cc:Work>
    </rdf:RDF>
  </metadata>
  <g
     inkscape:groupmode="layer"
     id="layer1"
     inkscape:label="basis"
     style="display:none"
     sodipodi:insensitive="true">
    <path
       style="fill:#ff0000;fill-rule:evenodd;stroke:#937e62;stroke-width:1.00000012;stroke-linecap:butt;stroke-linejoin:miter;stroke-miterlimit:4;stroke-dasharray:none;stroke-opacity:1"
       d="m -6.5000042,15.089286 144.7321542,0"
       id="path4155"
       inkscape:connector-curvature="0"
       sodipodi:nodetypes="cc" />
  </g>
  <g
     style="display:none"
     inkscape:label="end"
     id="g4161"
     inkscape:groupmode="layer"
     sodipodi:insensitive="true">
    <path
       sodipodi:nodetypes="cc"
       inkscape:connector-curvature="0"
       id="path4163"
       d="m -6.5000042,15.089286 66.3749972,0"
       style="fill:none;fill-rule:evenodd;stroke:#937e62;stroke-width:0.50000006;stroke-linecap:butt;stroke-linejoin:miter;stroke-miterlimit:4;stroke-dasharray:none;stroke-opacity:1" />
    <path
       style="fill:none;fill-rule:evenodd;stroke:url(#linearGradient4175);stroke-width:0.50000006;stroke-linecap:butt;stroke-linejoin:miter;stroke-miterlimit:4;stroke-dasharray:none;stroke-opacity:1"
       d="m -6.5000042,15.089286 66.3749972,0"
       id="path4167"
       inkscape:connector-curvature="0"
       sodipodi:nodetypes="cc" />
    <path
       style="fill:none;fill-rule:evenodd;stroke:#584d45;stroke-width:0.50000006;stroke-linecap:butt;stroke-linejoin:miter;stroke-miterlimit:4;stroke-dasharray:none;stroke-opacity:1"
       d="m 55.906354,10.050123 4,5.038135 -4,4.949748"
       id="path4180"
       inkscape:connector-curvature="0"
       sodipodi:nodetypes="ccc" />
  </g>
  <g
     style="display:inline"
     inkscape:label="start"
     id="g4157"
     inkscape:groupmode="layer"
     sodipodi:insensitive="true">
    <path
       sodipodi:nodetypes="cc"
       inkscape:connector-curvature="0"
       id="path4159"
       d="m 70,15.089286 68.23215,0"
       style="fill:#ff0000;fill-rule:evenodd;stroke:#937e62;stroke-width:0.50000006;stroke-linecap:butt;stroke-linejoin:miter;stroke-miterlimit:4;stroke-dasharray:none;stroke-opacity:1" />
    <path
       style="fill:none;fill-rule:evenodd;stroke:url(#linearGradient4185);stroke-width:0.50000006;stroke-linecap:butt;stroke-linejoin:miter;stroke-miterlimit:4;stroke-dasharray:none;stroke-opacity:1"
       d="m 70,15.089286 68.23215,0"
       id="path4177"
       inkscape:connector-curvature="0"
       sodipodi:nodetypes="cc" />
    <path
       style="fill:none;fill-opacity:1;fill-rule:evenodd;stroke:#584d45;stroke-width:0.50000006;stroke-linecap:butt;stroke-linejoin:miter;stroke-miterlimit:4;stroke-dasharray:none;stroke-opacity:1"
       d="m 69.999998,10.125001 0,9.874999"
       id="path4165"
       inkscape:connector-curvature="0" />
  </g>
  <g
     inkscape:groupmode="layer"
     id="g4330"
     inkscape:label="old"
     style="display:none"
     sodipodi:insensitive="true">
    <path
       sodipodi:nodetypes="cccssczcssccc"
       inkscape:connector-curvature="0"
       id="path4332"
       d="m 138.23215,15.089286 -65.245471,0 C 70.236051,14.980678 70.562938,12.55608 69.15197,10.854374 68.612134,10.314538 67.969327,9.8776721 67.255539,9.5757653 66.541752,9.2738585 65.756982,9.1069107 64.93322,9.1069107 c -0.823762,0 -1.608532,0.1669478 -2.322319,0.4688547 -4.640528,2.5562526 -0.441016,4.7585316 2.376632,5.5135186 2.817648,0.754987 8.092819,2.335498 2.268006,5.481198 -0.713788,0.301907 -1.498557,0.468855 -2.322319,0.468855 -0.823762,0 -1.608531,-0.166948 -2.322319,-0.468855 -0.713788,-0.301906 -1.356595,-0.738772 -1.896431,-1.278608 -1.770674,-2.192952 -1.689741,-4.212558 -3.703987,-4.202588 l -63.5104872,0"
       style="fill:none;fill-rule:evenodd;stroke:#937e62;stroke-width:0.50000006;stroke-linecap:butt;stroke-linejoin:miter;stroke-miterlimit:4;stroke-dasharray:none;stroke-opacity:1" />
    <path
       style="fill:none;fill-rule:evenodd;stroke:url(#radialGradient4336);stroke-width:0.50000006;stroke-linecap:butt;stroke-linejoin:miter;stroke-miterlimit:4;stroke-dasharray:none;stroke-opacity:1"
       d="m 89.991454,15.089286 -17.004775,0 C 70.236051,14.980678 70.562938,12.55608 69.15197,10.854374 68.612134,10.314538 67.969327,9.8776721 67.255539,9.5757653 66.541752,9.2738585 65.756982,9.1069107 64.93322,9.1069107 c -0.823762,0 -1.608532,0.1669478 -2.322319,0.4688547 -4.640528,2.5562526 -0.441016,4.7585316 2.376632,5.5135186 2.817648,0.754987 8.092819,2.335498 2.268006,5.481198 -0.713788,0.301907 -1.498557,0.468855 -2.322319,0.468855 -0.823762,0 -1.608531,-0.166948 -2.322319,-0.468855 -0.713788,-0.301906 -1.356595,-0.738772 -1.896431,-1.278608 -1.770674,-2.192952 -1.689741,-4.212558 -3.703987,-4.202588 l -17.026877,0"
       id="path4334"
       inkscape:connector-curvature="0"
       sodipodi:nodetypes="cccssczcssccc" />
  </g>
  <g
     style="display:none"
     inkscape:label="now"
     id="g4192"
     inkscape:groupmode="layer"
     sodipodi:insensitive="true">
    <path
       style="fill:none;fill-rule:evenodd;stroke:#937e62;stroke-width:0.50000006;stroke-linecap:butt;stroke-linejoin:miter;stroke-miterlimit:4;stroke-dasharray:none;stroke-opacity:1"
       d="m -6.5000042,15.089286 28.2500002,0 14.125,0 c 10.447699,0.289555 22.716585,0.479921 30.223538,-3.799684 2.642218,-1.5254855 6.020809,-0.620195 7.546294,2.022024 1.525487,2.642218 0.620196,6.020809 -2.022022,7.546295 -2.642218,1.525485 -6.020811,0.620194 -7.546297,-2.022024 l -2.883884,-4.995035 c -1.525486,-2.642218 -0.620195,-6.02081 2.022024,-7.546295 2.642218,-1.5254853 6.020809,-0.6201943 7.546295,2.0220242 0.381371,0.6605547 0.509199,1.3548101 0.533039,2.0515478 0.006,0.174184 0.0054,0.481107 7.2e-4,0.655113"
       id="path4181"
       inkscape:connector-curvature="0"
       sodipodi:nodetypes="ccccssccsssc" />
    <path
       sodipodi:nodetypes="ccccssccsssc"
       inkscape:connector-curvature="0"
       id="path4194"
       d="m 138.23215,15.089286 -29.08483,0 -14.542409,0 c -10.549461,-0.16131 -23.199896,-0.696294 -30.860992,3.657465 -2.642218,1.525486 -6.020809,0.620195 -7.546294,-2.022024 -1.525487,-2.642218 -0.620196,-6.020809 2.022022,-7.5462947 2.642219,-1.5254857 6.020811,-0.6201947 7.546296,2.0220237 l 2.883885,4.995035 c 1.525486,2.642218 0.620195,6.02081 -2.022024,7.546295 -2.642218,1.525486 -6.020809,0.620194 -7.546295,-2.022024 -0.381372,-0.660554 -0.524183,-1.363461 -0.566753,-2.071012 -0.01064,-0.176888 -0.01502,-0.486649 -0.01529,-0.663528"
       style="fill:none;fill-rule:evenodd;stroke:#937e62;stroke-width:0.50000006;stroke-linecap:butt;stroke-linejoin:miter;stroke-miterlimit:4;stroke-dasharray:none;stroke-opacity:1" />
    <path
       style="fill:none;fill-rule:evenodd;stroke:url(#linearGradient4356);stroke-width:0.50000006;stroke-linecap:butt;stroke-linejoin:miter;stroke-miterlimit:4;stroke-dasharray:none;stroke-opacity:1"
       d="m 94.604911,15.089286 c -10.549461,-0.16131 -23.199896,-0.696294 -30.860992,3.657465 -2.642218,1.525486 -6.020809,0.620195 -7.546294,-2.022024 -1.525487,-2.642218 -0.620196,-6.020809 2.022022,-7.5462947 2.642219,-1.5254857 6.020811,-0.6201947 7.546296,2.0220237 l 2.883885,4.995035 c 1.525486,2.642218 0.620195,6.02081 -2.022024,7.546295 -2.642218,1.525486 -6.020809,0.620194 -7.546295,-2.022024 -0.381372,-0.660554 -0.524183,-1.363461 -0.566753,-2.071012 -0.01064,-0.176888 -0.01502,-0.486649 -0.01529,-0.663528"
       id="path4348"
       inkscape:connector-curvature="0"
       sodipodi:nodetypes="ccssccsssc" />
    <path
       sodipodi:nodetypes="ccssccsssc"
       inkscape:connector-curvature="0"
       id="path4338"
       d="m 35.874996,15.089286 c 10.447699,0.289555 22.716585,0.479921 30.223538,-3.799684 2.642218,-1.5254855 6.020809,-0.620195 7.546294,2.022024 1.525487,2.642218 0.620196,6.020809 -2.022022,7.546295 -2.642218,1.525485 -6.020811,0.620194 -7.546297,-2.022024 l -2.883884,-4.995035 c -1.525486,-2.642218 -0.620195,-6.02081 2.022024,-7.546295 2.642218,-1.5254853 6.020809,-0.6201943 7.546295,2.0220242 0.381371,0.6605547 0.509199,1.3548101 0.533039,2.0515478 0.006,0.174184 0.0054,0.481107 7.2e-4,0.655113"
       style="fill:none;fill-rule:evenodd;stroke:url(#linearGradient4346);stroke-width:0.50000006;stroke-linecap:butt;stroke-linejoin:miter;stroke-miterlimit:4;stroke-dasharray:none;stroke-opacity:1" />
  </g>
  <g
     style="display:none"
     inkscape:label="new"
     id="g4168"
     inkscape:groupmode="layer"
     sodipodi:insensitive="true">
    <path
       style="fill:none;fill-rule:evenodd;stroke:#937e62;stroke-width:0.50000006;stroke-linecap:butt;stroke-linejoin:miter;stroke-miterlimit:4;stroke-dasharray:none;stroke-opacity:1"
       d="m 138.23215,15.089286 -65.245471,0 C 70.236051,14.980678 70.562938,12.55608 69.15197,10.854374 68.612134,10.314538 67.969327,9.8776721 67.255539,9.5757653 66.541752,9.2738585 65.756982,9.1069107 64.93322,9.1069107 c -0.823762,0 -1.608532,0.1669478 -2.322319,0.4688547 -4.640528,2.5562526 -0.441016,4.7585316 2.376632,5.5135186 2.817648,0.754987 8.092819,2.335498 2.268006,5.481198 -0.713788,0.301907 -1.498557,0.468855 -2.322319,0.468855 -0.823762,0 -1.608531,-0.166948 -2.322319,-0.468855 -0.713788,-0.301906 -1.356595,-0.738772 -1.896431,-1.278608 -1.770674,-2.192952 -1.689741,-4.212558 -3.703987,-4.202588 l -63.5104872,0"
       id="path4188"
       inkscape:connector-curvature="0"
       sodipodi:nodetypes="cccssczcssccc" />
    <path
       sodipodi:nodetypes="cccssczcssccc"
       inkscape:connector-curvature="0"
       id="path4161"
       d="m 89.991454,15.089286 -17.004775,0 C 70.236051,14.980678 70.562938,12.55608 69.15197,10.854374 68.612134,10.314538 67.969327,9.8776721 67.255539,9.5757653 66.541752,9.2738585 65.756982,9.1069107 64.93322,9.1069107 c -0.823762,0 -1.608532,0.1669478 -2.322319,0.4688547 -4.640528,2.5562526 -0.441016,4.7585316 2.376632,5.5135186 2.817648,0.754987 8.092819,2.335498 2.268006,5.481198 -0.713788,0.301907 -1.498557,0.468855 -2.322319,0.468855 -0.823762,0 -1.608531,-0.166948 -2.322319,-0.468855 -0.713788,-0.301906 -1.356595,-0.738772 -1.896431,-1.278608 -1.770674,-2.192952 -1.689741,-4.212558 -3.703987,-4.202588 l -17.026877,0"
       style="fill:none;fill-rule:evenodd;stroke:url(#radialGradient4179);stroke-width:0.50000006;stroke-linecap:butt;stroke-linejoin:miter;stroke-miterlimit:4;stroke-dasharray:none;stroke-opacity:1" />
  </g>
</svg>
